# xmcd
#
# Track frame offsets:
#	150
#	12217
#	30361
#
# Disc length: 526 seconds
#
# Revision: 0
# Processed by: cddbd v1.5.2PL0 Copyright (c) Steve Scherf et al.
# Submitted via: audiograbber 1.83.01
#
DISCID=13020c03
DTITLE=boogielicious - Boogie Woogie Man
DYEAR=2013
DGENRE=
TTITLE0=Boogie Woogie Man
TTITLE1=Flip Flop and Fly
TTITLE2=Bookwokk Mountain Boogie
EXTD=Eeco Rijken Rapp (piano]\nDavid Herzel (drums]\nBertram Becher (harp]\n\n
EXTD=\nfeat. Bertram Becher 
EXTT0=
EXTT1=
EXTT2=
PLAYORDER=
